<?xml version="1.0" encoding="utf-8"?>
<!-- Generator: Adobe Illustrator 21.0.0, SVG Export Plug-In . SVG Version: 6.00 Build 0)  -->
<svg version="1.1" id="Warstwa_1" xmlns="http://www.w3.org/2000/svg" xmlns:xlink="http://www.w3.org/1999/xlink" x="0px" y="0px"
	 viewBox="0 0 335.4 244.4" style="enable-background:new 0 0 335.4 244.4;" xml:space="preserve">
<style type="text/css">
	.st0{fill:#DBBEAA;}
</style>
<title>Obszar roboczy 1</title>
<path class="st0" d="M237.6-0.1H80.5c-5.5,0-10,4.5-10,10v224.5c0,5.5,4.5,10,10,10h157.2c5.5,0,10-4.5,10-10V9.9
	C247.6,4.3,243.2-0.1,237.6-0.1z M226.6,212.3c0,5.5-4.5,10-10,10H104.8c-5.5,0-10-4.5-10-10V33.1c0-5.5,4.5-10,10-10h111.8
	c5.5,0,10,4.5,10,10V212.3z"/>
<path class="st0" d="M112.1,43.7h98.5c2.8,0,5.1,2.3,5.1,5.1l0,0c0,2.8-2.3,5.1-5.1,5.1h-98.5c-2.8,0-5.1-2.3-5.1-5.1l0,0
	C107,45.9,109.2,43.7,112.1,43.7z"/>
<path class="st0" d="M112.1,67.1h98.5c2.8,0,5.1,2.3,5.1,5.1l0,0c0,2.8-2.3,5.1-5.1,5.1h-98.5c-2.8,0-5.1-2.3-5.1-5.1l0,0
	C107,69.4,109.2,67.1,112.1,67.1z"/>
<path class="st0" d="M190.8,139.2L154,178.1c-1.5,1.6-3.9,1.6-5.5,0.1c-0.6-0.6-1.1-1.4-1.2-2.3l-1.7-14.3c-0.2-2-1.9-3.4-3.9-3.4
	l-7.3,0.1c-2.1,0-3.9,1.8-3.8,3.9c0,0.1,0,0.3,0,0.4l5.5,44c0.3,2.1,2.2,3.6,4.3,3.4c0.9-0.1,1.7-0.5,2.3-1.2l61.5-64.4
	c1.5-1.6,1.4-4-0.1-5.5c-0.7-0.7-1.7-1.1-2.7-1.1h-7.8C192.5,138,191.5,138.4,190.8,139.2z"/>
</svg>
