<?xml version="1.0" encoding="utf-8"?>
<!-- Generator: Adobe Illustrator 21.0.0, SVG Export Plug-In . SVG Version: 6.00 Build 0)  -->
<svg version="1.1" id="Warstwa_1" xmlns="http://www.w3.org/2000/svg" xmlns:xlink="http://www.w3.org/1999/xlink" x="0px" y="0px"
	 viewBox="0 0 393.8 387" style="enable-background:new 0 0 393.8 387;" xml:space="preserve">
	 <style type="text/css">
	.st0{fill:#DBBEAA;}
</style>
<title>Obszar roboczy 1</title>
<g>
	<path class="st0" d="M293.9,172.8c-2.7-4.6-8.2-6.7-13.3-5.2c-4.1,1.2-8.1,2.4-12.2,3.6c-4.9,1.4-8.5-0.3-11.5-5.1c-4.1-6.4-8.8-12.5-14.2-17.8
		c-4-4-5-7.8-2.5-12.3c2.2-3.9,4.4-7.8,6.5-11.8c2.4-4.7,1.4-10.4-2.5-14c-10.2-9.2-21.9-15.6-35.2-19.2c-5.9-1.6-9.9,0.2-13,5.5
		c-2,3.5-4,6.9-5.8,10.5c-2.5,4.9-6,6.6-11.7,5.5c-7.9-1.4-15.9-2.4-23.9-2.8c-4.9-0.2-8.1-1.9-9.4-6.4c-1.3-4.3-2.5-8.6-3.8-12.9
		c-2-6.5-5.9-9.2-12.7-8.7c-13,1-25.2,4.4-36.6,10.8c-6.2,3.5-7.9,7.7-6,14.6c1.1,3.8,2.2,7.7,3.4,11.5c1.7,5.3-0.7,9.1-6.2,12.2
		c-6,3.4-11.4,7.8-16.1,12.9c-4.3,4.6-8.2,5.8-12.9,3.2c-3.8-2.1-7.6-4.2-11.4-6.2c-6-3.1-10.3-2.5-14.8,2.5
		c-9,10.1-15.3,21.7-18.8,34.8c-1.5,5.7,0.1,9.8,5.1,12.8c3.7,2.2,7.5,4.3,11.4,6.3c5.3,2.7,6.1,6.9,4.9,12.8
		c-1.5,7.3-2.1,14.7-2.4,22.1c-0.2,5.3-1.9,8.7-7,10.1c-4.5,1.2-9,2.5-13.4,4c-5.2,1.7-8,5.5-7.8,10.9c0.7,14,4.5,27.2,11.6,39.4
		c2.9,4.9,7.4,6.5,12.8,4.9c4.2-1.2,8.3-2.4,12.5-3.6c5.4-1.5,9.1,0.6,12.4,6.3c3.4,6,7.9,11.4,13,16.2c4.4,4.2,5.5,8.1,2.9,12.7
		c-2.2,3.9-4.5,7.8-6.5,11.8c-2.4,4.8-1.3,10.6,2.6,14.1c10.3,9.2,22.1,15.6,35.4,19.1c5.3,1.4,9.5-0.4,12.3-5.1
		c2.3-3.9,4.4-7.8,6.5-11.8c2.8-5.2,7-6.1,13.9-4.1c6,1.8,12.3,2.6,18.6,2.2c7.2-0.6,11,1.6,12.5,7.2c1.2,4.2,2.2,8.4,3.6,12.5
		c1.9,5.9,5.5,8.6,11.5,8.3c14-0.8,27.2-4.6,39.3-11.8c4.4-2.6,5.9-7,4.6-12.1c-1.1-4.3-2.2-8.7-3.6-13c-1.7-5.3,0.4-8.7,5.5-11.9
		c6.4-4,12.1-8.9,17.6-14.1c3.9-3.7,7.5-4.8,12-2.3c4.1,2.3,8.1,4.6,12.3,6.7c4.9,2.5,9.9,1.6,13.6-2.5c9.2-10.2,15.6-22,19.2-35.2
		c1.6-5.8-0.3-10.1-5.5-13.1c-3.7-2.2-7.5-4.2-11.4-6.3c-4.3-2.3-5.6-5.7-4.8-10.4c1-5.7,2.1-11.5,2.4-17.3
		c0.8-16.6-0.1-14.9,16.8-20c3.6-1.1,7.9-3.1,9.7-6c2-3.1,1.5-7.8,2.2-11.9C303.4,194.1,299.9,183,293.9,172.8z M160.4,330.1
		c-53,4.4-99.5-34.9-103.9-87.9s34.9-99.5,87.9-103.9c53-4.4,99.5,34.9,103.9,87.9C252.6,279.2,213.3,325.7,160.4,330.1z"/>
	<path class="st0" d="M393.2,60c-0.7-8.2-2.1-10-10-9.4c-3,0.2-4.8-1.4-6.2-3.9c-2.8-5.2-5.8-10.4-8.8-15.6c-1.4-2.3-1.8-4.5-0.4-6.8
		c0.5-0.9,1-1.8,1.5-2.7c2.4-4.2,2.3-6.6-1.8-9.4c-5.1-3.5-10.4-7-16-9.7c-6.3-3.1-8.6-3.7-12.5,3.9c-1.5,2.9-3.9,3.8-7.2,3.6
		c-5.8-0.3-11.6-0.2-17.3-0.1c-2.6,0.1-4.6-0.6-6-2.8c-0.7-1.1-1.3-2.3-2-3.4c-2.1-3.7-4.1-4.7-7.9-2.9c-6.1,2.9-12.1,5.9-17.7,9.6
		c-6.5,4.3-6.4,6.2-2.7,12.2c0.1,0.2,0.3,0.5,0.4,0.7c1.6,2.6,1.1,4.8-0.5,7.3c-3.1,5-6.1,10-8.9,15.2c-1.3,2.4-3,3.8-5.6,3.9
		c-1.3,0.1-2.6,0-3.9,0c-3.9,0-6,1.4-6.3,5.3c-0.5,6.3-1,12.7-0.6,19c0.5,8.5,1.6,10,10.1,9.6c2.8-0.1,4.6,1.3,6,3.8
		c2.9,5.3,5.9,10.6,9,15.8c1.4,2.3,1.7,4.5,0.3,6.8c-0.6,1-1.2,2.1-1.8,3.2c-2,3.4-1.7,5.5,1.3,8.1c6,5.2,12.8,9.1,20.3,11.8
		c3.6,1.3,5.6,0.5,7.5-2.8c0.5-0.9,1.1-1.8,1.5-2.7c1.6-2.9,4-3.8,7.3-3.5c4.9,0.4,10,1,14.8,0.3c5.2-0.7,8.1,1.1,10.2,5.5
		c2.1,4.3,4.2,5.2,8.7,3.1c5.6-2.6,11.1-5.4,16.2-8.8c7.1-4.7,7.1-5.8,3.1-13.3c-1.5-2.7-1.1-5,0.6-7.6c3.1-4.9,6-9.9,8.7-15
		c1.4-2.6,3.2-4.1,6.1-4.1c0.9,0,1.9,0,2.8,0.1c4.6,0.1,6.4-1.2,7.1-5.7c0.6-3.8,0.9-7.6,1.3-10.9C393.6,64.9,393.4,62.5,393.2,60z
		 M322.9,111.8c-24.3,0-43.9-19.7-43.9-43.9s19.7-43.9,43.9-43.9s43.9,19.7,43.9,43.9S347.2,111.8,322.9,111.8z"/>
</g>
</svg>
