<?xml version="1.0" encoding="utf-8"?>
<!-- Generator: Adobe Illustrator 21.0.0, SVG Export Plug-In . SVG Version: 6.00 Build 0)  -->
<svg version="1.1" id="Warstwa_1" xmlns="http://www.w3.org/2000/svg" xmlns:xlink="http://www.w3.org/1999/xlink" x="0px" y="0px"
	 viewBox="0 0 335.4 244.4" style="enable-background:new 0 0 335.4 244.4;" xml:space="preserve">
<style type="text/css">
	.st0{fill:#DBBEAA;}
</style>
<title>consultingObszar roboczy 1</title>
<path class="st0" d="M334.4,209c-4-10.7-7.2-18.1-12-28.5c-1.4-3-8-14.8-7-26.4c0.7-8.8,4.6-18.5,3.5-30.8
	c-5.2-55.8-58.7-94.8-113.4-82.7c-50.4,11.2-82.1,61.2-70.9,111.5c10.8,48.4,57.6,80,106.5,71.8c6.2-1,10.5-3.1,16.5-3.7
	c10.8-0.9,30.1,1.4,46.9,3.1c1,0.1,15.5,1.2,21.9,1.1C335,224.3,336.9,215.9,334.4,209z M304.1,204c-4.9,0.1-16.2-0.8-17-0.9
	c-13-1.3-28-3.1-36.4-2.4c-4.7,0.4-8.1,2-12.9,2.8c-39.6,6.3-76.8-20.8-83-60.4c-5.9-37.6,18.2-73.5,55.3-82
	c42.5-9.5,84.1,20.8,88.1,64.2c0.9,9.5-2.2,17.1-2.7,23.9c-0.8,9,4.4,18.2,5.5,20.5c3.8,8.1,6.3,13.8,9.4,22.2
	C312.3,197.3,310.8,203.9,304.1,204z"/>
<path class="st0" d="M9.8,192.9c6.3,0.1,20.8-1,21.9-1.1c16.7-1.7,36-4,46.9-3.1c6,0.5,10.4,2.6,16.5,3.7
	c50.9,8.5,99-25.9,107.5-76.8c8.1-48.9-23.4-95.7-71.8-106.5C75.9-3.1,22.5,35.9,17.3,91.7c-1.1,12.2,2.8,22,3.5,30.8
	c1,11.6-5.6,23.4-7.1,26.4c-4.9,10.4-8.1,17.8-12.1,28.5C-0.9,184.3,1.1,192.8,9.8,192.9z M25.8,160.4c3.1-8.3,5.6-14.1,9.4-22.2
	c1.1-2.4,6.2-11.5,5.5-20.5c-0.6-6.8-3.6-14.4-2.7-23.9c4-43.4,45.6-73.7,88.1-64.2c39.1,8.9,63.6,47.7,54.8,86.8
	c-8.5,37.4-44.6,61.8-82.5,55.6c-4.8-0.8-8.2-2.4-12.8-2.8c-8.4-0.7-23.4,1.1-36.4,2.4c-0.8,0.1-12.1,1-17,0.9
	C25.3,172.3,23.8,165.8,25.8,160.4z"/>
</svg>
