<?xml version="1.0" encoding="utf-8"?>
<!-- Generator: Adobe Illustrator 21.0.0, SVG Export Plug-In . SVG Version: 6.00 Build 0)  -->
<svg version="1.1" id="Warstwa_1" xmlns="http://www.w3.org/2000/svg" xmlns:xlink="http://www.w3.org/1999/xlink" x="0px" y="0px"
	 viewBox="0 0 335.4 244.4" style="enable-background:new 0 0 335.4 244.4;" xml:space="preserve">
<style type="text/css">
	.st0{fill:#00E5BE;}
</style>
<title>Obszar roboczy 1</title>
<path class="st0" d="M285.6,51.2h-94.9l31.8-31.8c2.5-2.5,2.5-6.5,0-9c0,0,0,0,0,0l-7.8-7.8c-2.5-2.5-6.5-2.5-9,0c0,0,0,0,0,0
	l-42.7,42.7L120.4,2.7c-2.5-2.5-6.5-2.5-9,0c0,0,0,0,0,0l-7.8,7.8c-2.5,2.5-2.5,6.5,0,9c0,0,0,0,0,0l31.8,31.8H43.2
	c-6,0-10.8,4.8-10.8,10.8v169.7c0,6,4.8,10.8,10.8,10.8c0,0,0,0,0,0h242.4c6,0,10.8-4.8,10.8-10.8l0,0V62
	C296.4,56,291.6,51.2,285.6,51.2z M272.6,84.7v48.5H175V73.9h86.8C267.8,74,272.6,78.8,272.6,84.7L272.6,84.7z M68.3,73.9h83v59.3
	H57.5V84.7C57.5,78.8,62.3,73.9,68.3,73.9L68.3,73.9z M57.5,205.5v-48.5h93.8v59.3h-83C62.3,216.3,57.5,211.5,57.5,205.5
	C57.5,205.5,57.5,205.5,57.5,205.5z M261.8,216.3H175v-59.3h97.6v48.5C272.6,211.4,267.8,216.3,261.8,216.3
	C261.8,216.3,261.8,216.3,261.8,216.3z"/>
</svg>
