<?xml version="1.0" encoding="utf-8"?>
<!-- Generator: Adobe Illustrator 21.0.0, SVG Export Plug-In . SVG Version: 6.00 Build 0)  -->
<svg version="1.1" id="Warstwa_1" xmlns="http://www.w3.org/2000/svg" xmlns:xlink="http://www.w3.org/1999/xlink" x="0px" y="0px"
	 viewBox="0 0 335.4 244.4" style="enable-background:new 0 0 335.4 244.4;" xml:space="preserve">
<style type="text/css">
	.st0{fill:#DBBEAA;}
</style>
<title>Obszar roboczy 1</title>
<path class="st0" d="M293.4,244.4H6.1c-3.4,0-6.1-2.7-6.1-6.1V6.1C0,2.7,2.7,0,6.1,0h0.8c1.4,0,2.8,0.5,3.9,1.4l286.5,232.1
	c2.6,2.1,3,6,0.9,8.6C297,243.5,295.3,244.4,293.4,244.4L293.4,244.4z M12.3,232.1h263.8L12.3,18.4V232.1z"/>
<path class="st0" d="M185.8,206.2H45c-3.4,0-6.1-2.7-6.1-6.1V86.4c0-3.4,2.7-6.1,6.1-6.1h0.4c1.4,0,2.8,0.5,3.9,1.4l140.4,113.7
	c2.6,2.1,3,6,0.9,8.6C189.4,205.4,187.6,206.2,185.8,206.2z M51.2,193.9h117.2L51.2,99V193.9z"/>
<path class="st0" d="M207.3,153.6l65.6-18.4c0.6-0.2,1.2-0.5,1.6-1L334.3,73c1.4-1.5,1.4-3.8-0.1-5.2l0,0l-4.1-4
	c-1.5-1.4-3.8-1.4-5.2,0.1l0,0l-60.5,62l0.1,0.1L223,137.6c-2,0.6-4-0.6-4.5-2.5c-0.2-0.6-0.2-1.3,0-1.9l10.6-41.7l0.1,0.1l60.5-62
	c1.4-1.5,1.4-3.8-0.1-5.2l0,0l-4.1-4c-1.5-1.4-3.8-1.4-5.2,0.1l0,0l-59.8,61.2c-0.5,0.5-0.8,1-0.9,1.7l-16.9,66
	c-0.5,2,0.7,4,2.6,4.5C206,153.8,206.7,153.8,207.3,153.6z"/>
<path class="st0" d="M246.8,108.5L246.8,108.5c-2.6-2.5-2.6-6.7-0.1-9.3L300.6,44c2.5-2.6,6.7-2.6,9.3-0.1l0,0
	c2.6,2.5,2.6,6.7,0.1,9.3l-53.9,55.2C253.6,111,249.4,111.1,246.8,108.5z"/>
</svg>
