<?xml version="1.0" encoding="utf-8"?>
<!-- Generator: Adobe Illustrator 21.0.0, SVG Export Plug-In . SVG Version: 6.00 Build 0)  -->
<svg version="1.1" id="Warstwa_1" xmlns="http://www.w3.org/2000/svg" xmlns:xlink="http://www.w3.org/1999/xlink" x="0px" y="0px"
	 viewBox="0 0 335.4 244.4" style="enable-background:new 0 0 335.4 244.4;" xml:space="preserve">
<style type="text/css">
	.st0{fill:#DBBEAA;}
</style>
<title>Obszar roboczy 1</title>
<path class="st0" d="M280,0.4H58.2c-12.9,0-23.4,10.5-23.4,23.4v143.1c0,12.9,10.5,23.4,23.4,23.4h89.7v31.4h-16.3
	c-5.8,0-10.5,4.7-10.5,10.5l0,0l0,0c0,5.8,4.7,10.5,10.5,10.5l0,0h69.1c5.8,0,10.5-4.7,10.5-10.5l0,0l0,0c0-5.8-4.7-10.5-10.5-10.5
	l0,0h-15.8v-31.3H280c12.9,0,23.4-10.5,23.4-23.4l0,0V23.8C303.4,10.9,292.9,0.4,280,0.4z M290.3,164.7c0,5.7-4.6,10.3-10.3,10.3
	H58.2c-5.7,0-10.3-4.6-10.3-10.3l0,0V26c0-5.7,4.6-10.3,10.3-10.3H280c5.7,0,10.3,4.6,10.3,10.3V164.7z"/>
</svg>
