<?xml version="1.0" encoding="utf-8"?>
<!-- Generator: Adobe Illustrator 21.0.0, SVG Export Plug-In . SVG Version: 6.00 Build 0)  -->
<svg version="1.1" id="Warstwa_1" xmlns="http://www.w3.org/2000/svg" xmlns:xlink="http://www.w3.org/1999/xlink" x="0px" y="0px"
	 viewBox="0 0 335.4 244.4" style="enable-background:new 0 0 335.4 244.4;" xml:space="preserve">
<style type="text/css">
	.st0{fill:#DBBEAA;}
</style>
<title>Obszar roboczy 1</title>
<path class="st0" d="M167.8,225.4c-9.1,0-16.5-7.4-16.5-16.5s7.4-16.5,16.5-16.5s16.5,7.4,16.5,16.5S176.9,225.4,167.8,225.4z
	 M167.8,199.5c-5.2,0-9.4,4.2-9.4,9.4s4.2,9.4,9.4,9.4s9.4-4.2,9.4-9.4l0,0C177.2,203.7,173,199.5,167.8,199.5L167.8,199.5z"/>
<path class="st0" d="M226.1,0.1H108.6C100,0.1,93.2,7,93.2,15.5l0,0V229c0,8.5,6.9,15.4,15.4,15.4l0,0h117.5
	c8.5,0,15.4-6.9,15.4-15.4l0,0V15.5C241.5,7,234.6,0.1,226.1,0.1L226.1,0.1z M108.4,229.4v-214h118v214H108.4z"/>
</svg>
