<?xml version="1.0" encoding="utf-8"?>
<!-- Generator: Adobe Illustrator 21.0.0, SVG Export Plug-In . SVG Version: 6.00 Build 0)  -->
<svg version="1.1" id="Warstwa_1" xmlns="http://www.w3.org/2000/svg" xmlns:xlink="http://www.w3.org/1999/xlink" x="0px" y="0px"
	 viewBox="0 0 335.4 244.4" style="enable-background:new 0 0 335.4 244.4;" xml:space="preserve">
<style type="text/css">
	.st0{fill:#00E5BE;}
</style>
<title>Obszar roboczy 1</title>
<path class="st0" d="M23.1,228.8L23.1,228.8c0-6.9,5.6-12.6,12.6-12.6h6.6c6.9,0,12.6,5.6,12.6,12.6l0,0c0,6.9-5.6,12.6-12.6,12.6
	h-6.6C28.7,241.4,23.1,235.7,23.1,228.8z"/>
<path class="st0" d="M62.5,228.5L62.5,228.5c0-6.9,5.6-12.6,12.6-12.6h6.6c6.9,0,12.6,5.6,12.6,12.6l0,0c0,6.9-5.6,12.6-12.6,12.6
	h-6.6C68.1,241,62.5,235.4,62.5,228.5z"/>
<path class="st0" d="M62.5,197.3L62.5,197.3c0-6.9,5.6-12.6,12.6-12.6h6.6c6.9,0,12.6,5.6,12.6,12.6l0,0c0,6.9-5.6,12.6-12.6,12.6
	h-6.6C68.1,209.9,62.5,204.3,62.5,197.3z"/>
<path class="st0" d="M101.9,228.5L101.9,228.5c0-6.9,5.6-12.6,12.6-12.6h6.6c6.9,0,12.6,5.6,12.6,12.6v0c0,6.9-5.6,12.6-12.6,12.6
	h-6.6C107.5,241.1,101.9,235.4,101.9,228.5z"/>
<path class="st0" d="M101.9,197.3L101.9,197.3c0-6.9,5.6-12.6,12.6-12.6h6.6c6.9,0,12.6,5.6,12.6,12.6v0c0,6.9-5.6,12.6-12.6,12.6
	h-6.6C107.5,209.9,101.9,204.3,101.9,197.3z"/>
<path class="st0" d="M101.9,166.2L101.9,166.2c0-6.9,5.6-12.6,12.6-12.6h6.6c6.9,0,12.6,5.6,12.6,12.6v0c0,6.9-5.6,12.6-12.6,12.6
	h-6.6C107.5,178.8,101.9,173.1,101.9,166.2z"/>
<path class="st0" d="M141.3,228.5L141.3,228.5c0-6.9,5.6-12.6,12.6-12.6h6.6c6.9,0,12.6,5.6,12.6,12.6l0,0c0,6.9-5.6,12.6-12.6,12.6
	h-6.6C147,241,141.3,235.4,141.3,228.5z"/>
<path class="st0" d="M141.3,197.3L141.3,197.3c0-6.9,5.6-12.6,12.6-12.6h6.6c6.9,0,12.6,5.6,12.6,12.6l0,0c0,6.9-5.6,12.6-12.6,12.6
	h-6.6C147,209.9,141.3,204.3,141.3,197.3z"/>
<path class="st0" d="M141.3,166.2L141.3,166.2c0-6.9,5.6-12.6,12.6-12.6h6.6c6.9,0,12.6,5.6,12.6,12.6l0,0c0,6.9-5.6,12.6-12.6,12.6
	h-6.6C147,178.8,141.3,173.1,141.3,166.2z"/>
<path class="st0" d="M141.3,134.6L141.3,134.6c0-6.9,5.6-12.6,12.6-12.6h6.6c6.9,0,12.6,5.6,12.6,12.6l0,0c0,6.9-5.6,12.6-12.6,12.6
	h-6.6C147,147.2,141.3,141.6,141.3,134.6z"/>
<path class="st0" d="M180.8,228.5L180.8,228.5c0-6.9,5.6-12.6,12.6-12.6h6.6c6.9,0,12.6,5.6,12.6,12.6l0,0c0,6.9-5.6,12.6-12.6,12.6
	h-6.6C186.4,241.1,180.8,235.4,180.8,228.5z"/>
<path class="st0" d="M180.8,197.3L180.8,197.3c0-6.9,5.6-12.6,12.6-12.6h6.6c6.9,0,12.6,5.6,12.6,12.6l0,0c0,6.9-5.6,12.6-12.6,12.6
	h-6.6C186.4,209.9,180.8,204.3,180.8,197.3z"/>
<path class="st0" d="M180.7,166.2L180.7,166.2c0-6.9,5.6-12.6,12.6-12.6h6.6c6.9,0,12.6,5.6,12.6,12.6l0,0c0,6.9-5.6,12.6-12.6,12.6
	h-6.6C186.4,178.8,180.7,173.1,180.7,166.2z"/>
<path class="st0" d="M180.8,134.6L180.8,134.6c0-6.9,5.6-12.6,12.6-12.6h6.6c6.9,0,12.6,5.6,12.6,12.6l0,0c0,6.9-5.6,12.6-12.6,12.6
	h-6.6C186.4,147.2,180.8,141.6,180.8,134.6z"/>
<path class="st0" d="M180.8,103.9L180.8,103.9c0-6.9,5.6-12.6,12.6-12.6h6.6c6.9,0,12.6,5.6,12.6,12.6l0,0c0,6.9-5.6,12.6-12.6,12.6
	h-6.6C186.4,116.5,180.8,110.9,180.8,103.9z"/>
<path class="st0" d="M220.2,228.5L220.2,228.5c0-6.9,5.6-12.6,12.6-12.6h6.6c6.9,0,12.6,5.6,12.6,12.6l0,0c0,6.9-5.6,12.6-12.6,12.6
	h-6.6C225.8,241.1,220.2,235.4,220.2,228.5z"/>
<path class="st0" d="M220.2,197.3L220.2,197.3c0-6.9,5.6-12.6,12.6-12.6h6.6c6.9,0,12.6,5.6,12.6,12.6l0,0c0,6.9-5.6,12.6-12.6,12.6
	h-6.6C225.8,209.9,220.2,204.3,220.2,197.3z"/>
<path class="st0" d="M220.2,166.2L220.2,166.2c0-6.9,5.6-12.6,12.6-12.6h6.6c6.9,0,12.6,5.6,12.6,12.6l0,0c0,6.9-5.6,12.6-12.6,12.6
	h-6.6C225.8,178.8,220.2,173.1,220.2,166.2z"/>
<path class="st0" d="M220.2,134.7L220.2,134.7c0-6.9,5.6-12.6,12.6-12.6h6.6c6.9,0,12.6,5.6,12.6,12.6l0,0c0,6.9-5.6,12.6-12.6,12.6
	h-6.6C225.8,147.2,220.2,141.6,220.2,134.7z"/>
<path class="st0" d="M220.2,103.9L220.2,103.9c0-6.9,5.6-12.6,12.6-12.6h6.6c6.9,0,12.6,5.6,12.6,12.6l0,0c0,6.9-5.6,12.6-12.6,12.6
	h-6.6C225.8,116.5,220.2,110.9,220.2,103.9z"/>
<path class="st0" d="M220.2,73.4L220.2,73.4c0-6.9,5.6-12.6,12.6-12.6h6.6c6.9,0,12.6,5.6,12.6,12.6l0,0c0,6.9-5.6,12.6-12.6,12.6
	h-6.6C225.8,85.9,220.2,80.3,220.2,73.4z"/>
<path class="st0" d="M259.6,228.5L259.6,228.5c0-6.9,5.6-12.6,12.6-12.6h6.6c6.9,0,12.6,5.6,12.6,12.6v0c0,6.9-5.6,12.6-12.6,12.6
	h-6.6C265.2,241.1,259.6,235.4,259.6,228.5z"/>
<path class="st0" d="M259.6,197.3L259.6,197.3c0-6.9,5.6-12.6,12.6-12.6h6.6c6.9,0,12.6,5.6,12.6,12.6v0c0,6.9-5.6,12.6-12.6,12.6
	h-6.6C265.2,209.9,259.6,204.3,259.6,197.3z"/>
<path class="st0" d="M259.6,166.2L259.6,166.2c0-6.9,5.6-12.6,12.6-12.6h6.6c6.9,0,12.6,5.6,12.6,12.6v0c0,6.9-5.6,12.6-12.6,12.6
	h-6.6C265.2,178.8,259.6,173.1,259.6,166.2z"/>
<path class="st0" d="M259.6,134.6L259.6,134.6c0-6.9,5.6-12.6,12.6-12.6h6.6c6.9,0,12.6,5.6,12.6,12.6v0c0,6.9-5.6,12.6-12.6,12.6
	h-6.6C265.2,147.2,259.6,141.6,259.6,134.6z"/>
<path class="st0" d="M259.6,103.9L259.6,103.9c0-6.9,5.6-12.6,12.6-12.6h6.6c6.9,0,12.6,5.6,12.6,12.6v0c0,6.9-5.6,12.6-12.6,12.6
	h-6.6C265.2,116.5,259.6,110.9,259.6,103.9z"/>
<path class="st0" d="M259.6,73.4L259.6,73.4c0-6.9,5.6-12.6,12.6-12.6h6.6c6.9,0,12.6,5.6,12.6,12.6v0c0,6.9-5.6,12.6-12.6,12.6
	h-6.6C265.2,85.9,259.6,80.3,259.6,73.4z"/>
<path class="st0" d="M310.4,1.9l-24.7,26.2c-1,1-2.6,1.1-3.7,0.1c-0.4-0.4-0.7-1-0.8-1.6l-1.2-9.6c-0.2-1.3-1.3-2.3-2.6-2.3
	l-4.9,0.1c-1.4,0.1-2.6,1.3-2.5,2.7c0,0.1,0,0.2,0,0.2l3.7,29.6c0.2,1.4,1.5,2.4,2.9,2.3c0.6-0.1,1.1-0.4,1.6-0.8l41.3-43.3
	c1-1,1-2.7-0.1-3.7c-0.5-0.5-1.1-0.7-1.8-0.7h-5.3C311.6,1.1,310.9,1.4,310.4,1.9z"/>
</svg>
