<?xml version="1.0" standalone="no"?>
<!DOCTYPE svg PUBLIC "-//W3C//DTD SVG 20010904//EN"
 "http://www.w3.org/TR/2001/REC-SVG-20010904/DTD/svg10.dtd">
<svg version="1.0" xmlns="http://www.w3.org/2000/svg"
 width="400.000000pt" height="400.000000pt" viewBox="0 0 400.000000 400.000000"
 preserveAspectRatio="xMidYMid meet">
<metadata>
Created by potrace 1.11, written by Peter Selinger 2001-2013
</metadata>
<g transform="translate(0.000000,400.000000) scale(0.100000,-0.100000)"
fill="#000000" stroke="none">
<path d="M1199 3986 c-2 -2 -20 -6 -39 -9 -187 -25 -417 -142 -486 -246 -93
-141 40 -323 291 -401 176 -54 426 -60 624 -14 229 52 391 186 391 323 0 89
-91 199 -218 265 -48 25 -154 57 -232 71 -66 12 -322 20 -331 11z"/>
<path d="M2427 3664 c-1 -1 -24 -5 -50 -8 -26 -3 -64 -12 -84 -20 -21 -7 -54
-19 -73 -27 -94 -35 -225 -118 -298 -188 -38 -37 -112 -147 -112 -167 0 -26
-99 -83 -225 -129 -171 -61 -242 -110 -284 -193 -36 -72 -44 -176 -19 -252 7
-19 12 -38 13 -42 0 -4 19 -36 43 -72 40 -61 130 -151 179 -179 11 -7 35 -20
53 -30 80 -45 118 -107 129 -210 15 -132 47 -169 280 -315 183 -114 235 -155
276 -210 96 -133 77 -285 -49 -384 -69 -55 -178 -107 -281 -134 -41 -11 -160
-34 -205 -40 -68 -9 -261 -9 -315 -1 -118 18 -240 72 -350 155 -91 68 -93 70
-50 22 44 -49 42 -47 79 -75 46 -35 28 -37 -21 -3 -82 56 -185 152 -228 212
-11 16 -24 33 -30 40 -5 6 -30 37 -54 69 -108 142 -180 205 -259 226 -23 7
-54 22 -69 35 -70 59 -209 109 -220 80 -2 -6 12 -30 31 -53 83 -99 73 -156
-60 -343 -67 -94 -147 -243 -159 -296 -44 -200 40 -401 253 -610 46 -45 88
-82 93 -82 4 0 14 -6 21 -13 35 -35 202 -130 303 -172 122 -51 372 -131 467
-149 12 -2 30 -7 38 -10 8 -3 29 -7 45 -10 29 -5 66 -12 115 -21 61 -12 78
-15 120 -21 25 -3 56 -7 70 -9 22 -3 81 -9 222 -21 57 -4 352 -5 403 0 22 2
72 7 110 10 79 7 136 15 180 23 17 3 40 7 52 8 12 2 34 6 50 9 15 4 37 8 48
10 11 3 40 9 65 15 25 7 56 14 70 17 39 8 167 44 245 69 219 71 406 164 550
274 103 79 285 269 285 299 0 6 4 12 9 12 5 0 21 25 37 55 16 30 32 55 37 55
4 0 7 6 7 14 0 8 9 31 21 50 12 20 18 36 14 36 -4 0 -3 6 3 13 16 20 44 148
46 212 3 74 -10 148 -34 195 -13 26 -17 49 -13 81 3 24 6 71 7 104 2 53 -1 74
-18 145 -19 75 -100 197 -185 279 -37 35 -179 152 -203 167 -7 5 -33 34 -58
64 -25 30 -57 66 -71 80 -44 43 -157 140 -163 140 -3 0 -27 15 -53 34 -27 19
-115 71 -198 116 -82 46 -185 103 -228 129 -43 25 -89 52 -103 59 -72 39 -169
213 -202 362 -17 80 -1 183 52 325 34 92 34 129 0 160 -15 14 -32 25 -38 26
-6 0 -21 2 -34 3 -12 2 -23 1 -25 0z"/>
</g>
</svg>
