<?xml version="1.0" encoding="utf-8"?>
<!-- Generator: Adobe Illustrator 21.0.0, SVG Export Plug-In . SVG Version: 6.00 Build 0)  -->
<svg version="1.1" id="Warstwa_1" xmlns="http://www.w3.org/2000/svg" xmlns:xlink="http://www.w3.org/1999/xlink" x="0px" y="0px"
	 viewBox="0 0 335.4 244.4" style="enable-background:new 0 0 335.4 244.4;" xml:space="preserve">
<style type="text/css">
	.st0{fill:#00E5BE;}
</style>
<title>Obszar roboczy 1</title>
<path class="st0" d="M294.2,43.5h-48V8.3c0-3.7-3-6.6-6.6-6.6h-11.4c-3.7,0-6.6,3-6.6,6.6v35.2H111V8.3c0-3.7-3-6.6-6.6-6.6l0,0H93
	c-3.7,0-6.6,3-6.6,6.6c0,0,0,0,0,0v35.2H41.7c-6.2,0-11.2,5-11.2,11.2c0,0,0,0,0,0v176.8c0,6.2,5,11.2,11.2,11.2c0,0,0,0,0,0h252.5
	c6.2,0,11.2-5,11.2-11.2V54.8C305.4,48.6,300.4,43.5,294.2,43.5z M280.6,204.2c0,6.2-5,11.2-11.2,11.2H67.8c-6.2,0-11.2-5-11.2-11.2
	l0,0V78.4c0-6.2,5-11.2,11.2-11.2h18.6v18.8c0,3.7,3,6.6,6.6,6.6c0,0,0,0,0,0h11.4c3.6,0,6.6-3,6.6-6.6V67.2h110.5v18.8
	c0,3.7,3,6.6,6.6,6.6h11.4c3.7,0,6.6-3,6.6-6.6V67.2h23.2c6.2,0,11.2,5,11.2,11.2c0,0,0,0,0,0V204.2z"/>
<path class="st0" d="M123.1,106c6-2,12.3-3.1,18.7-3.2c17,0,27.2,8.7,27.2,23.4c0,8.4-4.4,14.2-13.7,20l-17,10.5
	c-3.8,2.4-5.9,7.1-5.9,11.6h33.8c0.7-0.1,1.4,0.5,1.5,1.3c0,0.1,0,0.1,0,0.2v12.6c0.1,0.7-0.5,1.4-1.3,1.5c-0.1,0-0.1,0-0.2,0h-50.3
	c-0.7,0.1-1.4-0.5-1.5-1.3c0-0.1,0-0.1,0-0.2v-6.9c0-15.9,5.1-26.2,15.6-32.7l16.5-10.4c3-1.8,4.4-3.8,4.4-6.2
	c0-4.7-3.4-7.5-9.2-7.5c-4.6,0-9.1,0.8-13.4,2.2l-7.4,2.4c-0.9,0.3-1.5,0-1.8-0.9l-4.1-12.2c-0.3-0.9,0-1.5,0.9-1.8L123.1,106z"/>
<path class="st0" d="M196.1,183.9c-0.7,0.1-1.4-0.5-1.5-1.3c0-0.1,0-0.1,0-0.2V137c0-3.2,0.3-6.3,0.8-9.4c0.1-0.9-0.2-1.3-1.1-1.3
	c-0.6,0.1-1.2,0.3-1.8,0.6l-7.3,2.8c-0.6,0.4-1.4,0.2-1.8-0.5c-0.1-0.1-0.1-0.2-0.1-0.3l-4.6-12.4c-0.4-0.6-0.2-1.4,0.5-1.8
	c0.1-0.1,0.2-0.1,0.3-0.1l29.3-11.2c0.7-0.3,1.5-0.2,2,0.3l0.8,0.7c0.6,0.4,1,1.1,0.9,1.8v76.3c0.1,0.7-0.5,1.4-1.3,1.5
	c-0.1,0-0.1,0-0.2,0L196.1,183.9z"/>
</svg>
