<?xml version="1.0" encoding="utf-8"?>
<!-- Generator: Adobe Illustrator 21.0.0, SVG Export Plug-In . SVG Version: 6.00 Build 0)  -->
<svg version="1.1" id="Warstwa_1" xmlns="http://www.w3.org/2000/svg" xmlns:xlink="http://www.w3.org/1999/xlink" x="0px" y="0px"
	 viewBox="0 0 335.4 244.4" style="enable-background:new 0 0 335.4 244.4;" xml:space="preserve">
<style type="text/css">
	.st0{fill:#00E5BE;}
</style>
<title>Obszar roboczy 1</title>
<path class="st0" d="M167.1,0.4c-48.9,0.4-88.2,40.3-87.9,89.2c0.2,29.5,15.1,56.9,39.7,73.2l0,0l11,74.8c0.6,3.9,3.9,6.8,7.9,6.8
	l58.5-0.1c4,0,7.3-2.9,7.9-6.8l11.3-73.9l0,0c41.2-26.4,53.2-81.1,26.9-122.3C225.9,15.6,197.5,0.1,167.1,0.4z M203.5,143.6
	c-2.8,1.8-5.6,3.4-8.6,4.7c-2.9,1.3-4.7,4.2-4.6,7.4c0.1,5.9,0.1,29.7-0.1,33.7c-0.1,1-0.1,2.1-0.2,3.4c-0.3,4.2-3.9,7.5-8.1,7.5
	h-31.2c-3.9,0-7.2-3-7.6-6.9c-0.2-1.8-0.3-3.4-0.4-4.7c-0.3-4.2-0.2-28.9-0.1-35c0-3-1.6-5.8-4.3-7.2c-1.6-0.9-3.2-1.8-4.7-2.8
	c-29.8-19.3-38.2-59.1-18.9-88.9s59.1-38.2,88.9-18.9s38.2,59.1,18.9,88.9C217.5,132.3,211.1,138.7,203.5,143.6L203.5,143.6z"/>
</svg>
