<?xml version="1.0" encoding="utf-8"?>
<!-- Generator: Adobe Illustrator 21.0.0, SVG Export Plug-In . SVG Version: 6.00 Build 0)  -->
<svg version="1.1" id="Warstwa_1" xmlns="http://www.w3.org/2000/svg" xmlns:xlink="http://www.w3.org/1999/xlink" x="0px" y="0px"
	 viewBox="0 0 335.4 244.4" style="enable-background:new 0 0 335.4 244.4;" xml:space="preserve">
<style type="text/css">
	.st0{fill:#00E5BE;}
</style>
<title>Obszar roboczy 1</title>
<path class="st0" d="M326.4,157.4c-3.6-9.9-6.6-16.7-11.1-26.3c-1.3-2.8-7.4-13.6-6.5-24.3c0.7-8.1,4.3-17.1,3.2-28.3
	c-4.8-51.4-54-87.3-104.4-76.1c-46.3,10.4-75.5,56.4-65,102.8c10,44.4,52.9,73.4,97.9,66c5.7-0.9,9.7-2.9,15.2-3.4
	c10-0.8,27.8,1.3,43.1,2.9c1,0.1,14.3,1.1,20.1,1C326.9,171.5,328.7,163.8,326.4,157.4z M298.5,152.9c-4.5,0.1-14.9-0.7-15.6-0.8
	c-12-1.2-25.8-2.9-33.5-2.2c-4.3,0.4-7.4,1.9-11.8,2.6c-36.4,6-70.8-18.7-76.8-55.1C155,62.5,177.5,29.1,212,21.3
	c39.2-8.7,77.4,19.2,81.1,59.1c0.8,8.7-2,15.7-2.5,22c-0.7,8.3,4,16.7,5,18.9c3.5,7.4,5.8,12.7,8.6,20.4
	C306,146.7,304.7,152.7,298.5,152.9L298.5,152.9z"/>
<path class="st0" d="M7.3,238.1c4.6,0.1,15.3-0.7,16.1-0.8c12.3-1.3,26.5-2.9,34.4-2.3c4.4,0.4,7.6,1.9,12.2,2.7
	c37.4,6.4,72.9-18.7,79.3-56c6.2-36.2-17.2-70.9-53.1-78.7c-40.2-8.9-79.5,19.7-83.3,60.8c-0.8,9,2,16.2,2.6,22.6
	c0.7,8.5-4.1,17.2-5.2,19.4c-3.6,7.6-6,13.1-8.9,21C-0.4,231.8,1,238,7.3,238.1z M19.1,214.2c2.3-6.1,4.1-10.4,6.9-16.3
	c0.8-1.7,4.6-8.4,4-15.1c-0.4-5-2.6-10.6-2-17.6c2.7-29.3,28.7-50.9,58-48.3c29.3,2.7,50.9,28.7,48.3,58
	c-2.7,29.3-28.7,50.9-58,48.3c-1.3-0.1-2.6-0.3-3.9-0.5c-3.5-0.6-6-1.8-9.4-2.1c-6.2-0.5-17.2,0.8-26.8,1.8
	c-0.6,0.1-8.9,0.7-12.5,0.6C18.8,223,17.6,218.2,19.1,214.2z"/>
</svg>
