<?xml version="1.0" encoding="utf-8"?>
<!-- Generator: Adobe Illustrator 21.0.0, SVG Export Plug-In . SVG Version: 6.00 Build 0)  -->
<svg version="1.1" id="Warstwa_1" xmlns="http://www.w3.org/2000/svg" xmlns:xlink="http://www.w3.org/1999/xlink" x="0px" y="0px"
	 viewBox="0 0 335.4 244.4" style="enable-background:new 0 0 335.4 244.4;" xml:space="preserve">
<style type="text/css">
	.st0{fill:#00E5BE;}
</style>
<title>Obszar roboczy 1</title>
<path class="st0" d="M53.5,17.8l30.2,112.8c0.3,1.1,0.8,2,1.6,2.8l103.8,103.8c2.5,2.5,6.5,2.5,8.9,0l7-7c2.5-2.5,2.5-6.5,0-8.9
	L100.1,116.2l-0.1,0.1L80.9,45.1c-0.9-3.4,1.1-6.8,4.5-7.7c1.1-0.3,2.2-0.3,3.2,0l71.3,19.1l-0.1,0.1l104.9,104.9
	c2.5,2.5,6.5,2.5,8.9,0l7-7c2.5-2.5,2.5-6.5,0-8.9L176.9,41.9c-0.8-0.8-1.8-1.3-2.8-1.6L61.3,10c-3.4-0.9-6.8,1.1-7.7,4.5
	C53.3,15.5,53.3,16.7,53.5,17.8z"/>
<path class="st0" d="M129.6,86.8l0.7-0.7c4.2-4.2,11-4.2,15.2,0l94.2,94.2c4.2,4.2,4.2,11,0,15.2l-0.7,0.7c-4.2,4.2-11,4.2-15.2,0
	L129.6,102C125.4,97.8,125.4,91,129.6,86.8z"/>
</svg>
